<svg width="36" height="36" viewBox="0 0 36 36" fill="none" xmlns="http://www.w3.org/2000/svg">
<path d="M18.0001 19.4964L13.345 24.1633C13.1296 24.377 12.8782 24.4839 12.5908 24.4839C12.3035 24.4839 12.0522 24.377 11.837 24.1633C11.6232 23.9495 11.5164 23.7001 11.5164 23.4151C11.5164 23.1301 11.6232 22.8808 11.837 22.667L16.5039 18.0001L11.837 13.3806C11.6232 13.1653 11.5164 12.9138 11.5164 12.6265C11.5164 12.3391 11.6232 12.0878 11.837 11.8726C12.0507 11.6589 12.3001 11.552 12.5851 11.552C12.8701 11.552 13.1195 11.6589 13.3332 11.8726L18.0001 16.5395L22.6196 11.8726C22.8113 11.6589 23.0567 11.552 23.356 11.552C23.6552 11.552 23.9124 11.6589 24.1276 11.8726C24.3414 12.0864 24.4482 12.3358 24.4482 12.6208C24.4482 12.9058 24.3414 13.1551 24.1276 13.3689L19.4607 18.0001L24.1276 22.6553C24.3414 22.8706 24.4482 23.1221 24.4482 23.4094C24.4482 23.6968 24.3414 23.9481 24.1276 24.1633C23.9139 24.377 23.6645 24.4839 23.3795 24.4839C23.0945 24.4839 22.8451 24.377 22.6314 24.1633L18.0001 19.4964Z" fill="#98959D"/>
</svg>
